<mxfile host="Electron" modified="2023-12-22T12:21:33.865Z" agent="Mozilla/5.0 (Windows NT 10.0; Win64; x64) AppleWebKit/537.36 (KHTML, like Gecko) draw.io/21.6.8 Chrome/114.0.5735.289 Electron/25.5.0 Safari/537.36" etag="lBu3tOMlBAr7tUjfpi-6" version="21.6.8" type="device">
  <diagram name="Страница — 1" id="v333m-oOqJ-PNQCh7DwG">
    <mxGraphModel dx="1619" dy="722" grid="0" gridSize="10" guides="0" tooltips="1" connect="1" arrows="1" fold="1" page="0" pageScale="1" pageWidth="827" pageHeight="1169" math="0" shadow="0">
      <root>
        <mxCell id="0" />
        <mxCell id="1" parent="0" />
        <mxCell id="l5nVHWM8_L8HdxqoOkrL-1" value="Пользователь" style="shape=umlActor;verticalLabelPosition=bottom;verticalAlign=top;html=1;outlineConnect=0;" parent="1" vertex="1">
          <mxGeometry x="280" y="400" width="30" height="60" as="geometry" />
        </mxCell>
        <mxCell id="l5nVHWM8_L8HdxqoOkrL-13" value="" style="rounded=0;orthogonalLoop=1;jettySize=auto;html=1;endArrow=none;endFill=0;" parent="1" source="l5nVHWM8_L8HdxqoOkrL-4" target="l5nVHWM8_L8HdxqoOkrL-1" edge="1">
          <mxGeometry relative="1" as="geometry" />
        </mxCell>
        <mxCell id="l5nVHWM8_L8HdxqoOkrL-4" value="Прохождение тестов ПДД" style="ellipse;whiteSpace=wrap;html=1;" parent="1" vertex="1">
          <mxGeometry x="50" y="460" width="130" height="70" as="geometry" />
        </mxCell>
        <mxCell id="l5nVHWM8_L8HdxqoOkrL-5" value="Решение тестов ПДД" style="ellipse;whiteSpace=wrap;html=1;" parent="1" vertex="1">
          <mxGeometry x="-60" y="670" width="130" height="70" as="geometry" />
        </mxCell>
        <mxCell id="l5nVHWM8_L8HdxqoOkrL-6" value="Выбор темы (раздела ПДД) теста" style="ellipse;whiteSpace=wrap;html=1;" parent="1" vertex="1">
          <mxGeometry x="100" y="670" width="130" height="70" as="geometry" />
        </mxCell>
        <mxCell id="l5nVHWM8_L8HdxqoOkrL-7" value="Просмотр ошибок после прохождения теста ПДД" style="ellipse;whiteSpace=wrap;html=1;" parent="1" vertex="1">
          <mxGeometry x="270" y="670" width="130" height="70" as="geometry" />
        </mxCell>
        <mxCell id="l5nVHWM8_L8HdxqoOkrL-8" value="Просмотр пункта(ов) ПДД вопроса" style="ellipse;whiteSpace=wrap;html=1;" parent="1" vertex="1">
          <mxGeometry x="430" y="670" width="130" height="70" as="geometry" />
        </mxCell>
        <mxCell id="l5nVHWM8_L8HdxqoOkrL-11" style="edgeStyle=orthogonalEdgeStyle;rounded=0;orthogonalLoop=1;jettySize=auto;html=1;exitX=0.5;exitY=1;exitDx=0;exitDy=0;endArrow=none;endFill=0;" parent="1" source="l5nVHWM8_L8HdxqoOkrL-9" edge="1">
          <mxGeometry relative="1" as="geometry">
            <mxPoint x="295" y="390" as="targetPoint" />
          </mxGeometry>
        </mxCell>
        <mxCell id="l5nVHWM8_L8HdxqoOkrL-9" value="Активация програмного средства" style="ellipse;whiteSpace=wrap;html=1;" parent="1" vertex="1">
          <mxGeometry x="225" y="280" width="140" height="70" as="geometry" />
        </mxCell>
        <mxCell id="l5nVHWM8_L8HdxqoOkrL-10" value="Работа над ошибками" style="ellipse;whiteSpace=wrap;html=1;" parent="1" vertex="1">
          <mxGeometry x="-250" y="610" width="160" height="90" as="geometry" />
        </mxCell>
        <mxCell id="l5nVHWM8_L8HdxqoOkrL-14" value="&lt;font style=&quot;font-size: 14px;&quot;&gt;Include&lt;/font&gt;" style="rounded=0;orthogonalLoop=1;jettySize=auto;html=1;endArrow=classic;endFill=1;exitX=0.5;exitY=1;exitDx=0;exitDy=0;entryX=0.5;entryY=0;entryDx=0;entryDy=0;strokeWidth=1;" parent="1" source="l5nVHWM8_L8HdxqoOkrL-4" target="l5nVHWM8_L8HdxqoOkrL-10" edge="1">
          <mxGeometry relative="1" as="geometry">
            <mxPoint x="179" y="486" as="sourcePoint" />
            <mxPoint x="290" y="445" as="targetPoint" />
          </mxGeometry>
        </mxCell>
        <mxCell id="l5nVHWM8_L8HdxqoOkrL-17" value="&lt;font style=&quot;font-size: 14px;&quot;&gt;Include&lt;/font&gt;" style="rounded=0;orthogonalLoop=1;jettySize=auto;html=1;endArrow=classic;endFill=1;exitX=0.5;exitY=1;exitDx=0;exitDy=0;entryX=0.5;entryY=0;entryDx=0;entryDy=0;strokeWidth=1;" parent="1" source="l5nVHWM8_L8HdxqoOkrL-4" target="l5nVHWM8_L8HdxqoOkrL-5" edge="1">
          <mxGeometry relative="1" as="geometry">
            <mxPoint x="125" y="540" as="sourcePoint" />
            <mxPoint x="-160" y="620" as="targetPoint" />
          </mxGeometry>
        </mxCell>
        <mxCell id="l5nVHWM8_L8HdxqoOkrL-18" value="&lt;font style=&quot;font-size: 14px;&quot;&gt;Include&lt;/font&gt;" style="rounded=0;orthogonalLoop=1;jettySize=auto;html=1;endArrow=classic;endFill=1;exitX=0.5;exitY=1;exitDx=0;exitDy=0;entryX=0.5;entryY=0;entryDx=0;entryDy=0;strokeWidth=1;" parent="1" source="l5nVHWM8_L8HdxqoOkrL-4" target="l5nVHWM8_L8HdxqoOkrL-6" edge="1">
          <mxGeometry relative="1" as="geometry">
            <mxPoint x="125" y="540" as="sourcePoint" />
            <mxPoint x="15" y="680" as="targetPoint" />
          </mxGeometry>
        </mxCell>
        <mxCell id="l5nVHWM8_L8HdxqoOkrL-19" value="&lt;font style=&quot;font-size: 14px;&quot;&gt;Include&lt;/font&gt;" style="rounded=0;orthogonalLoop=1;jettySize=auto;html=1;endArrow=classic;endFill=1;exitX=0.5;exitY=1;exitDx=0;exitDy=0;entryX=0;entryY=0;entryDx=0;entryDy=0;strokeWidth=1;" parent="1" source="l5nVHWM8_L8HdxqoOkrL-4" target="l5nVHWM8_L8HdxqoOkrL-7" edge="1">
          <mxGeometry relative="1" as="geometry">
            <mxPoint x="125" y="540" as="sourcePoint" />
            <mxPoint x="175" y="680" as="targetPoint" />
          </mxGeometry>
        </mxCell>
        <mxCell id="l5nVHWM8_L8HdxqoOkrL-20" value="&lt;font style=&quot;font-size: 14px;&quot;&gt;Include&lt;/font&gt;" style="rounded=0;orthogonalLoop=1;jettySize=auto;html=1;endArrow=classic;endFill=1;exitX=0.5;exitY=1;exitDx=0;exitDy=0;entryX=0.5;entryY=0;entryDx=0;entryDy=0;strokeWidth=1;" parent="1" source="l5nVHWM8_L8HdxqoOkrL-4" target="l5nVHWM8_L8HdxqoOkrL-8" edge="1">
          <mxGeometry relative="1" as="geometry">
            <mxPoint x="125" y="540" as="sourcePoint" />
            <mxPoint x="299" y="690" as="targetPoint" />
          </mxGeometry>
        </mxCell>
      </root>
    </mxGraphModel>
  </diagram>
</mxfile>
